# ProBuilder 6.0.7
# https://unity3d.com/unity/features/worldbuilding/probuilder
# 2/18/2026 7:59:40 PM

mtllib ./WidePlatform_01.mtl
o WidePlatform_01

g Cube (16)
v -161.6201 53.78597 -593.1361
v -130.4779 53.78597 -593.1361
v -161.6201 66.21404 -593.1361
v -130.4779 66.21404 -593.1361
v -130.478 53.78597 -561.6777
v -130.478 66.21404 -561.6777
v -161.8336 53.78599 -570.5083
v -161.8336 66.21404 -570.5083

vt 15 -4
vt 0 -4
vt 15 1
vt 0 1
vt 14.13162 -4.000003
vt 14.13162 0.9999974
vt 15.61506 -4.000001
vt 0 -3.999994
vt 15.61506 1
vt 10.16531 -3.999994
vt 10.16531 1
vt 0 0.9999974
vt 0.1027989 1
vt 15.1028 1
vt 0 -9.16479
vt 15.10279 -13.13162
vt 15.1028 -9.16479
vt 8.583069E-06 -13.13162

vn 4.179603E-06 0 -2.226099
vn 2.076149 0 5.250123E-06
vn -0.5274261 0 2.153069
vn -2.076043 0 -0.02251581
vn 1.078374E-12 2.485613 -5.74353E-07
vn -1.518015E-06 -2.485613 1.915451E-06

usemtl Dark_Gray_Prototype
f 3/3/1 4/4/1 2/2/1 1/1/1
f 4/6/2 6/4/2 5/2/2 2/5/2
f 6/9/3 8/4/3 7/8/3 5/7/3
f 8/11/4 3/12/4 1/2/4 7/10/4
f 8/15/5 6/16/5 4/14/5 3/13/5
f 1/3/6 2/4/6 5/18/6 7/17/6

